<?xml version="1.0" encoding="UTF-8" standalone="no"?>
<!-- Created with Inkscape (http://www.inkscape.org/) -->

<svg
   xmlns:dc="http://purl.org/dc/elements/1.1/"
   xmlns:cc="http://creativecommons.org/ns#"
   xmlns:rdf="http://www.w3.org/1999/02/22-rdf-syntax-ns#"
   xmlns:svg="http://www.w3.org/2000/svg"
   xmlns="http://www.w3.org/2000/svg"
   xmlns:sodipodi="http://sodipodi.sourceforge.net/DTD/sodipodi-0.dtd"
   xmlns:inkscape="http://www.inkscape.org/namespaces/inkscape"
   width="1024"
   height="1024"
   viewBox="0 0 1024 1024"
   id="svg2"
   version="1.1"
   inkscape:version="0.91 r13725"
   sodipodi:docname="video.svg">
  <defs
     id="defs4" />
  <sodipodi:namedview
     id="base"
     pagecolor="#ffffff"
     bordercolor="#666666"
     borderopacity="1.0"
     inkscape:pageopacity="0.0"
     inkscape:pageshadow="2"
     inkscape:zoom="0.8396893"
     inkscape:cx="694.55508"
     inkscape:cy="543.43313"
     inkscape:document-units="px"
     inkscape:current-layer="layer1"
     showgrid="true"
     units="px"
     showguides="true"
     inkscape:guide-bbox="true"
     inkscape:window-width="1366"
     inkscape:window-height="744"
     inkscape:window-x="0"
     inkscape:window-y="24"
     inkscape:window-maximized="1"
     inkscape:object-paths="true"
     inkscape:object-nodes="true"
     inkscape:snap-smooth-nodes="true">
    <sodipodi:guide
       position="0,0"
       orientation="0,1"
       id="guide4136"
       inkscape:label=""
       inkscape:color="rgb(0,0,255)" />
    <sodipodi:guide
       position="0,0"
       orientation="1,0"
       id="guide4138" />
    <sodipodi:guide
       position="1024,1088"
       orientation="1,0"
       id="guide4140"
       inkscape:label=""
       inkscape:color="rgb(0,0,255)" />
    <sodipodi:guide
       position="1131.7895,1024"
       orientation="0,1"
       id="guide4142"
       inkscape:label=""
       inkscape:color="rgb(0,0,255)" />
    <sodipodi:guide
       position="96,789.89474"
       orientation="1,0"
       id="guide4163"
       inkscape:label=""
       inkscape:color="rgb(17,255,0)" />
    <sodipodi:guide
       position="928,933.05263"
       orientation="1,0"
       id="guide4165"
       inkscape:label=""
       inkscape:color="rgb(17,255,0)" />
    <sodipodi:guide
       position="734.31579,96"
       orientation="0,1"
       id="guide4167"
       inkscape:label=""
       inkscape:color="rgb(17,255,0)" />
    <sodipodi:guide
       position="801.68421,928"
       orientation="0,1"
       id="guide4169"
       inkscape:label=""
       inkscape:color="rgb(17,255,0)" />
    <sodipodi:guide
       position="64,530.52632"
       orientation="1,0"
       id="guide4141"
       inkscape:label=""
       inkscape:color="rgb(0,0,255)" />
    <sodipodi:guide
       position="340.21053,960"
       orientation="0,1"
       id="guide4143"
       inkscape:label=""
       inkscape:color="rgb(0,0,255)" />
    <sodipodi:guide
       position="960,789.89474"
       orientation="1,0"
       id="guide4145"
       inkscape:label=""
       inkscape:color="rgb(0,0,255)" />
    <sodipodi:guide
       position="495.15789,64"
       orientation="0,1"
       id="guide4147"
       inkscape:label=""
       inkscape:color="rgb(0,0,255)" />
    <sodipodi:guide
       position="378.94737,192"
       orientation="0,1"
       id="guide4149"
       inkscape:label=""
       inkscape:color="rgb(0,0,255)" />
    <inkscape:grid
       type="xygrid"
       id="grid4151"
       enabled="false" />
    <inkscape:grid
       type="xygrid"
       id="grid4153"
       color="#ff1718"
       opacity="0.1254902"
       empcolor="#dd2d09"
       empopacity="0.21176471"
       spacingx="32"
       spacingy="32" />
    <sodipodi:guide
       position="512,576"
       orientation="1,0"
       id="guide4148" />
  </sodipodi:namedview>
  <metadata
     id="metadata7">
    <rdf:RDF>
      <cc:Work
         rdf:about="">
        <dc:format>image/svg+xml</dc:format>
        <dc:type
           rdf:resource="http://purl.org/dc/dcmitype/StillImage" />
        <dc:title></dc:title>
        <dc:date />
        <dc:creator>
          <cc:Agent>
            <dc:title>Aquib Azad</dc:title>
          </cc:Agent>
        </dc:creator>
        <dc:rights>
          <cc:Agent>
            <dc:title>Creatice Commons</dc:title>
          </cc:Agent>
        </dc:rights>
        <dc:description>Ascend Icons are adaptive icons that can be tweaked as per usage</dc:description>
        <cc:license
           rdf:resource="http://creativecommons.org/licenses/by/3.0/" />
      </cc:Work>
      <cc:License
         rdf:about="http://creativecommons.org/licenses/by/3.0/">
        <cc:permits
           rdf:resource="http://creativecommons.org/ns#Reproduction" />
        <cc:permits
           rdf:resource="http://creativecommons.org/ns#Distribution" />
        <cc:requires
           rdf:resource="http://creativecommons.org/ns#Notice" />
        <cc:requires
           rdf:resource="http://creativecommons.org/ns#Attribution" />
        <cc:permits
           rdf:resource="http://creativecommons.org/ns#DerivativeWorks" />
      </cc:License>
    </rdf:RDF>
  </metadata>
  <g
     inkscape:label="Layer 1"
     inkscape:groupmode="layer"
     id="layer1"
     transform="translate(0,-28.362161)">
    <path
       style="opacity:1;fill:#000000;fill-opacity:0.99459456;stroke:none;stroke-width:4;stroke-linecap:round;stroke-linejoin:round;stroke-miterlimit:4;stroke-dasharray:none;stroke-opacity:1"
       d="M 64 192 L 64 832 L 100 832 C 97.784 832 96 830.216 96 828 L 96 804 C 96 801.784 97.784 800 100 800 L 124 800 C 126.216 800 128 801.784 128 804 L 128 828 C 128 830.216 126.216 832 124 832 L 160 832 L 160 796 C 160 780.488 172.488 768 188 768 L 836 768 C 851.512 768 864 780.488 864 796 L 864 832 L 900 832 C 897.784 832 896 830.216 896 828 L 896 804 C 896 801.784 897.784 800 900 800 L 924 800 C 926.216 800 928 801.784 928 804 L 928 828 C 928 830.216 926.216 832 924 832 L 960 832 L 960 192 L 864 192 L 864 228 C 864 243.512 851.512 256 836 256 L 188 256 C 172.488 256 160 243.512 160 228 L 160 192 L 64 192 z M 100 224 L 124 224 C 126.216 224 128 225.784 128 228 L 128 252 C 128 254.216 126.216 256 124 256 L 100 256 C 97.784 256 96 254.216 96 252 L 96 228 C 96 225.784 97.784 224 100 224 z M 900 224 L 924 224 C 926.216 224 928 225.784 928 228 L 928 252 C 928 254.216 926.216 256 924 256 L 900 256 C 897.784 256 896 254.216 896 252 L 896 228 C 896 225.784 897.784 224 900 224 z M 100 288 L 124 288 C 126.216 288 128 289.784 128 292 L 128 316 C 128 318.216 126.216 320 124 320 L 100 320 C 97.784 320 96 318.216 96 316 L 96 292 C 96 289.784 97.784 288 100 288 z M 900 288 L 924 288 C 926.216 288 928 289.784 928 292 L 928 316 C 928 318.216 926.216 320 924 320 L 900 320 C 897.784 320 896 318.216 896 316 L 896 292 C 896 289.784 897.784 288 900 288 z M 100 352 L 124 352 C 126.216 352 128 353.784 128 356 L 128 380 C 128 382.216 126.216 384 124 384 L 100 384 C 97.784 384 96 382.216 96 380 L 96 356 C 96 353.784 97.784 352 100 352 z M 900 352 L 924 352 C 926.216 352 928 353.784 928 356 L 928 380 C 928 382.216 926.216 384 924 384 L 900 384 C 897.784 384 896 382.216 896 380 L 896 356 C 896 353.784 897.784 352 900 352 z M 100 416 L 124 416 C 126.216 416 128 417.784 128 420 L 128 444 C 128 446.216 126.216 448 124 448 L 100 448 C 97.784 448 96 446.216 96 444 L 96 420 C 96 417.784 97.784 416 100 416 z M 900 416 L 924 416 C 926.216 416 928 417.784 928 420 L 928 444 C 928 446.216 926.216 448 924 448 L 900 448 C 897.784 448 896 446.216 896 444 L 896 420 C 896 417.784 897.784 416 900 416 z M 100 480 L 124 480 C 126.216 480 128 481.784 128 484 L 128 508 C 128 510.216 126.216 512 124 512 L 100 512 C 97.784 512 96 510.216 96 508 L 96 484 C 96 481.784 97.784 480 100 480 z M 900 480 L 924 480 C 926.216 480 928 481.784 928 484 L 928 508 C 928 510.216 926.216 512 924 512 L 900 512 C 897.784 512 896 510.216 896 508 L 896 484 C 896 481.784 897.784 480 900 480 z M 100 544 L 124 544 C 126.216 544 128 545.784 128 548 L 128 572 C 128 574.216 126.216 576 124 576 L 100 576 C 97.784 576 96 574.216 96 572 L 96 548 C 96 545.784 97.784 544 100 544 z M 900 544 L 924 544 C 926.216 544 928 545.784 928 548 L 928 572 C 928 574.216 926.216 576 924 576 L 900 576 C 897.784 576 896 574.216 896 572 L 896 548 C 896 545.784 897.784 544 900 544 z M 100 608 L 124 608 C 126.216 608 128 609.784 128 612 L 128 636 C 128 638.216 126.216 640 124 640 L 100 640 C 97.784 640 96 638.216 96 636 L 96 612 C 96 609.784 97.784 608 100 608 z M 900 608 L 924 608 C 926.216 608 928 609.784 928 612 L 928 636 C 928 638.216 926.216 640 924 640 L 900 640 C 897.784 640 896 638.216 896 636 L 896 612 C 896 609.784 897.784 608 900 608 z M 100 672 L 124 672 C 126.216 672 128 673.784 128 676 L 128 700 C 128 702.216 126.216 704 124 704 L 100 704 C 97.784 704 96 702.216 96 700 L 96 676 C 96 673.784 97.784 672 100 672 z M 900 672 L 924 672 C 926.216 672 928 673.784 928 676 L 928 700 C 928 702.216 926.216 704 924 704 L 900 704 C 897.784 704 896 702.216 896 700 L 896 676 C 896 673.784 897.784 672 900 672 z M 100 736 L 124 736 C 126.216 736 128 737.784 128 740 L 128 764 C 128 766.216 126.216 768 124 768 L 100 768 C 97.784 768 96 766.216 96 764 L 96 740 C 96 737.784 97.784 736 100 736 z M 900 736 L 924 736 C 926.216 736 928 737.784 928 740 L 928 764 C 928 766.216 926.216 768 924 768 L 900 768 C 897.784 768 896 766.216 896 764 L 896 740 C 896 737.784 897.784 736 900 736 z "
       transform="translate(0,28.362161)"
       id="rect4157" />
    <rect
       style="opacity:1;fill:#cccccc;fill-opacity:0.99459456;stroke:none;stroke-width:4;stroke-linecap:round;stroke-linejoin:round;stroke-miterlimit:4;stroke-dasharray:none;stroke-opacity:1"
       id="rect4159"
       width="704"
       height="448"
       x="160"
       y="316.36215"
       ry="28.000006" />
  </g>
</svg>
